<?xml version="1.0" standalone="no"?>
<!DOCTYPE svg PUBLIC "-//W3C//DTD SVG 20010904//EN"
 "http://www.w3.org/TR/2001/REC-SVG-20010904/DTD/svg10.dtd">
<svg version="1.0" xmlns="http://www.w3.org/2000/svg"
 width="2048.000000pt" height="2048.000000pt" viewBox="0 0 2048.000000 2048.000000"
 preserveAspectRatio="xMidYMid meet">
<metadata>
Created by potrace 1.16, written by Peter Selinger 2001-2019
</metadata>
<g transform="translate(0.000000,2048.000000) scale(0.100000,-0.100000)"
fill="#000000" stroke="none">
<path d="M12369 15993 c-47 -91 -79 -150 -204 -383 -40 -74 -97 -182 -127
-240 -30 -58 -74 -141 -98 -185 -163 -304 -234 -437 -330 -620 -35 -66 -88
-167 -120 -225 -31 -58 -89 -166 -128 -240 -65 -125 -117 -223 -236 -442 l-47
-86 73 -12 c133 -23 298 -81 298 -106 0 -8 10 -14 23 -14 28 0 98 -45 168
-108 52 -46 149 -167 149 -184 0 -6 9 -21 20 -35 21 -27 80 -199 80 -233 0
-24 -2 -24 52 -1 74 32 199 71 288 91 205 45 524 54 693 19 56 -12 109 -22
117 -22 8 0 17 -3 20 -7 3 -4 39 -22 80 -41 41 -18 78 -38 81 -43 4 -5 15 -6
24 -2 13 5 16 2 11 -9 -3 -9 1 -18 9 -21 8 -4 15 -15 15 -25 0 -13 5 -16 16
-12 9 3 21 -3 30 -16 9 -12 20 -18 26 -15 6 4 8 2 5 -3 -4 -6 2 -21 13 -33 11
-13 20 -18 20 -12 0 6 -4 14 -10 17 -5 3 -10 11 -10 17 0 6 6 5 16 -3 9 -7 14
-22 11 -35 -2 -12 5 -32 15 -45 10 -13 16 -17 12 -8 -3 10 -1 20 4 23 5 3 8
-6 6 -21 -1 -14 5 -41 14 -60 l17 -35 12 28 c14 34 17 22 4 -21 -4 -17 -5 -39
0 -50 7 -17 8 -18 10 -2 1 9 3 22 4 27 1 6 3 18 4 28 2 15 3 14 10 -3 5 -11 4
-25 -1 -32 -11 -14 -12 -63 -3 -115 5 -28 12 -38 26 -38 17 0 19 -8 18 -67 -1
-54 -3 -62 -9 -38 -6 21 -8 -2 -9 -70 0 -55 0 -342 0 -637 l-1 -538 -270 0
c-249 0 -271 1 -277 18 -4 9 -11 20 -17 24 -7 5 -7 8 2 8 8 0 12 20 11 68 -1
37 -4 58 -6 47 -5 -20 -20 -35 -36 -35 -5 0 -5 5 -1 11 4 7 -7 2 -24 -11 -17
-13 -28 -28 -25 -36 3 -8 10 -11 15 -8 6 4 5 10 -3 16 -10 7 -9 8 5 4 10 -4
26 -1 35 6 15 12 15 11 1 -6 -14 -18 -13 -19 5 -12 11 4 16 4 12 0 -4 -4 -1
-14 6 -23 10 -12 7 -12 -12 2 -18 12 -28 14 -38 5 -9 -7 -17 -7 -27 1 -12 10
-14 5 -12 -28 2 -28 -1 -38 -11 -34 -16 6 -17 15 -2 30 6 6 8 16 5 22 -10 16
-26 13 -20 -3 9 -23 -46 -54 -87 -49 -21 3 -64 -4 -105 -17 -88 -28 -311 -39
-418 -20 -100 17 -210 63 -289 121 -37 27 -74 49 -82 49 -8 0 -15 9 -15 19 0
11 -7 26 -15 34 -26 26 -82 150 -96 210 l-12 57 -108 0 c-59 0 -174 -9 -255
-20 -82 -12 -246 -34 -364 -50 -118 -16 -290 -40 -382 -52 l-168 -23 -2 -160
-3 -160 -215 -5 c-202 -5 -215 -6 -218 -24 -2 -11 -11 -30 -19 -43 -8 -12 -12
-23 -7 -23 4 0 3 -5 -4 -12 -7 -7 -12 -24 -12 -39 0 -15 -4 -29 -8 -31 -16 -6
-80 -176 -70 -186 6 -6 5 -13 -3 -17 -8 -5 -10 -4 -5 3 4 7 3 12 -2 12 -5 0
-12 -11 -14 -24 l-5 -24 31 19 c17 10 40 19 51 19 17 0 17 2 5 10 -20 13 -6
12 63 -4 31 -7 57 -11 57 -8 0 3 16 -11 35 -31 19 -20 37 -32 40 -27 3 4 2 10
-2 13 -5 2 -2 2 5 0 7 -1 24 4 38 13 23 16 23 17 7 31 -16 13 -16 13 4 3 16
-7 35 -7 67 2 35 9 56 9 103 -2 32 -8 62 -13 66 -12 5 2 6 -2 3 -6 -3 -5 4
-18 15 -28 19 -17 20 -17 13 2 -4 10 -3 15 1 11 5 -4 8 -23 7 -43 -2 -21 4
-41 13 -50 13 -14 15 -46 13 -216 l-3 -199 -75 -3 c-100 -3 -99 -4 -88 49 11
49 7 209 -6 240 -7 17 -6 17 4 5 10 -13 11 -12 6 3 -3 10 -6 28 -6 38 0 11 -4
17 -10 14 -5 -3 -7 0 -4 9 9 23 -38 48 -78 42 -63 -10 -69 -29 -68 -215 0 -91
1 -170 0 -176 0 -6 -31 -10 -73 -10 -39 1 -77 -3 -84 -8 -8 -6 -12 38 -12 180
l-1 188 -26 22 c-19 18 -33 22 -62 18 -66 -8 -71 -26 -73 -225 -1 -96 -1 -182
0 -190 2 -12 0 -13 -7 -1 -7 9 -34 14 -88 15 l-78 1 -27 -78 c-15 -43 -30 -81
-33 -84 -3 -4 -6 -19 -6 -35 0 -16 -3 -27 -8 -24 -4 2 -16 -17 -26 -42 -10
-26 -24 -61 -32 -79 -8 -17 -14 -35 -14 -40 0 -6 -7 -24 -16 -42 -9 -18 -18
-50 -21 -71 -3 -22 -12 -45 -19 -51 -8 -6 -14 -19 -14 -28 0 -9 -5 -22 -12
-29 -9 -9 -9 -12 0 -12 11 0 108 32 197 64 23 9 76 15 123 16 l82 0 0 29 c0
28 3 30 108 64 59 20 233 78 387 131 258 88 286 96 357 96 74 0 77 1 80 25 3
24 20 31 238 106 129 44 252 85 273 91 20 6 37 16 37 24 0 15 -21 66 -31 74
-3 3 -9 22 -13 43 -4 21 -11 35 -15 32 -5 -2 -9 1 -8 8 1 31 -4 48 -12 43 -5
-4 -7 4 -3 16 4 16 2 19 -8 13 -9 -5 -11 -4 -6 3 8 13 -52 162 -65 162 -5 0
-9 11 -9 24 0 13 -7 43 -15 66 -13 38 -13 42 1 36 9 -3 49 -6 90 -6 59 0 74
-3 74 -15 0 -8 4 -15 10 -15 5 0 6 -8 3 -17 -6 -16 -5 -17 12 -3 17 14 18 14
7 -7 -7 -12 -12 -32 -12 -44 0 -17 3 -19 14 -10 11 10 14 7 13 -11 -1 -29 54
-198 65 -198 4 0 9 7 9 15 2 20 3 24 23 68 9 21 14 48 11 60 -5 16 -4 18 4 8
7 -11 11 -6 16 22 4 20 11 34 16 31 5 -3 9 6 9 19 0 14 7 41 15 61 l15 36 81
0 81 0 -7 -27 c-5 -16 -11 -45 -14 -66 -3 -21 -10 -39 -16 -40 -5 -1 -9 -13
-7 -27 2 -17 0 -21 -6 -12 -6 9 -19 -14 -41 -70 -45 -112 -46 -117 -31 -98 10
13 11 12 6 -3 -3 -10 -6 -24 -6 -30 0 -7 -4 -6 -9 2 -7 11 -11 4 -17 -25 -4
-21 -12 -42 -18 -46 -7 -5 -4 -8 7 -8 9 0 17 3 17 8 0 4 36 6 80 4 l80 -4 0
27 c0 14 7 28 15 31 13 5 15 35 15 188 0 120 -4 176 -10 166 -5 -8 -10 -10
-10 -5 0 27 18 33 100 31 l85 -1 3 -158 c2 -146 4 -158 20 -152 9 3 29 9 44
12 l27 5 3 147 3 146 78 3 c82 3 85 1 78 -56 -1 -7 12 1 30 17 54 52 164 65
215 26 25 -19 40 -19 24 0 -11 13 -10 14 4 9 10 -4 15 -13 11 -22 -3 -8 0 -20
5 -28 9 -10 20 -7 53 17 50 34 115 48 177 36 25 -4 55 -9 67 -10 11 -1 19 -5
16 -9 -8 -15 21 -8 121 30 94 34 98 37 64 40 l-38 3 0 70 0 69 85 0 85 0 0
-54 0 -54 88 33 c48 18 116 44 151 59 42 17 83 26 117 26 47 0 53 3 56 22 2
19 26 31 143 76 77 30 151 57 165 60 14 4 -33 9 -105 12 l-130 5 -3 194 -2
195 32 34 c18 19 43 38 55 43 13 5 20 14 18 22 -3 7 6 24 19 36 14 13 23 28
20 33 -3 5 -1 7 4 6 5 -2 55 48 111 110 64 69 110 112 122 112 12 0 19 6 17
15 -4 20 252 303 275 304 10 1 17 9 17 20 0 28 251 301 277 301 7 0 13 6 13
14 0 8 2 20 5 28 4 11 -78 13 -475 10 l-480 -3 0 233 0 233 840 -3 840 -2 0
-198 -1 -197 -39 -43 c-22 -24 -40 -50 -40 -58 0 -8 -6 -14 -14 -14 -20 0
-288 -291 -282 -306 3 -7 -3 -14 -14 -16 -22 -3 -280 -284 -280 -305 0 -7 -8
-13 -17 -14 -23 -1 -267 -269 -271 -297 -2 -14 -11 -22 -23 -22 -10 0 -19 -5
-19 -10 0 -12 733 -7 830 5 44 5 58 11 65 28 8 16 61 41 225 103 118 44 282
106 364 137 105 40 163 57 196 57 37 0 49 4 52 18 5 18 36 31 512 211 150 57
254 91 278 91 27 0 38 4 38 15 0 18 -3 17 416 176 238 90 353 129 382 129 30
0 42 4 42 14 0 8 29 26 70 42 38 15 67 31 64 35 -3 5 -10 9 -15 9 -5 0 -135
50 -287 110 -153 61 -292 110 -310 110 -20 0 -32 5 -32 13 0 17 3 16 -406 177
-181 71 -343 130 -358 130 -16 0 -34 6 -40 14 -6 8 -144 67 -306 131 -162 64
-327 130 -367 146 -39 16 -82 29 -94 29 -12 0 -27 6 -33 14 -6 8 -144 67 -306
131 -162 64 -327 129 -367 146 -39 16 -83 29 -96 29 -14 0 -27 4 -29 9 -1 4
-67 34 -145 66 l-141 57 -88 94 c-48 52 -93 93 -99 90 -6 -2 -11 4 -11 13 1
10 -39 60 -87 111 -70 75 -91 91 -98 79 -8 -11 -9 -9 -5 7 7 24 -33 69 -41 47
-3 -7 -9 -13 -15 -13 -6 0 -6 6 2 15 10 12 10 18 0 30 -7 8 -16 12 -21 9 -5
-3 -6 2 -3 10 4 10 1 16 -8 16 -7 0 -19 9 -26 20 -6 11 -17 18 -24 16 -7 -1
-10 -1 -5 1 14 9 7 25 -9 19 -11 -4 -15 -2 -11 7 3 7 -31 48 -74 92 -43 44
-79 74 -79 68 0 -7 5 -13 10 -13 15 0 12 -17 -4 -23 -10 -4 -12 4 -10 30 2 27
-1 33 -12 29 -8 -3 -13 -2 -10 3 7 11 -54 82 -65 75 -5 -3 -6 3 -2 13 3 10 2
15 -2 11 -5 -5 -15 1 -22 12 -8 11 -19 18 -24 15 -5 -4 -6 2 -2 11 5 14 3 16
-11 11 -10 -4 -15 -3 -11 3 7 11 -85 113 -94 104 -3 -3 1 -9 9 -14 10 -7 11
-10 2 -10 -17 0 -47 37 -47 59 0 18 -344 385 -353 376 -3 -2 1 -13 9 -22 13
-16 12 -17 -4 -4 -10 8 -15 21 -12 28 6 17 -21 47 -35 38 -5 -3 -7 0 -4 9 3 9
-6 23 -25 37 -17 13 -31 27 -31 32 0 5 -10 17 -22 27 -17 13 -25 15 -31 7 -6
-7 -6 -4 -3 7 5 15 -7 34 -50 77 -32 32 -61 56 -66 53 -15 -10 -49 28 -43 47
6 18 -26 45 -39 32 -7 -8 -46 26 -46 40 0 6 9 0 20 -13 11 -13 23 -20 27 -16
4 4 -12 25 -36 47 -31 29 -47 37 -54 30 -6 -6 -16 -11 -21 -11 -6 0 -3 5 7 11
23 14 23 33 -1 20 -14 -7 -18 -6 -18 9 0 10 4 16 9 13 5 -3 4 4 -3 16 -7 15
-17 20 -29 16 -11 -3 -25 3 -36 15 -10 11 -13 20 -7 20 6 0 15 -8 21 -17 5
-10 13 -14 17 -10 4 4 -21 36 -56 72 -36 35 -66 62 -69 60 -2 -3 2 -13 10 -22
13 -16 12 -17 -4 -4 -9 8 -15 21 -13 30 4 12 -54 91 -67 91 -1 0 -23 -39 -48
-87z m-461 -5195 l-3 -72 -65 -3 c-36 -2 -70 -5 -77 -7 -17 -7 -23 18 -23 90
l0 64 85 0 86 0 -3 -72z m-965 -120 c-4 -7 4 -9 49 -12 9 -1 20 -5 24 -9 5 -4
1 -5 -9 -1 -29 11 -19 -3 18 -26 24 -15 35 -29 35 -46 0 -13 5 -24 11 -24 5 0
7 6 3 13 -4 6 2 4 14 -7 47 -41 67 -177 37 -249 -8 -20 -15 -47 -15 -60 0 -13
-10 -32 -22 -43 -12 -10 -18 -13 -13 -5 5 8 -7 3 -26 -11 -86 -65 -173 -87
-264 -68 -30 6 -58 11 -62 11 -5 0 -16 8 -25 16 -12 11 -18 12 -18 4 0 -7 -5
-9 -10 -6 -6 4 -8 10 -6 14 6 9 -54 70 -69 70 -17 0 -35 105 -33 198 2 50 5
90 7 87 2 -2 10 5 18 16 8 11 23 20 34 20 14 0 19 7 19 25 0 16 11 32 30 47
22 16 27 24 18 31 -9 6 -7 7 5 3 23 -7 73 4 58 13 -6 4 36 7 93 6 57 0 102 -3
99 -7z"/>
<path d="M10818 10539 c-10 -5 -18 -7 -18 -4 0 3 -9 1 -20 -5 -11 -6 -17 -16
-14 -22 4 -6 3 -8 -4 -4 -11 7 -42 -46 -42 -74 0 -9 6 -22 13 -29 10 -11 10
-13 0 -7 -22 12 -15 -28 10 -65 13 -19 28 -33 34 -32 5 1 7 -12 5 -28 l-4 -29
71 1 c64 1 71 4 71 21 0 11 12 34 26 51 15 17 23 38 21 49 -3 10 -1 16 4 12 5
-3 9 12 9 33 0 29 -3 34 -10 23 -8 -11 -9 -9 -5 10 8 33 -24 75 -72 95 -41 17
-52 18 -75 4z"/>
<path d="M11897 12648 c-7 -195 -28 -267 -133 -446 -13 -23 -16 -35 -8 -40 6
-4 33 -40 58 -80 l47 -73 52 47 c69 62 154 104 212 104 37 0 45 3 45 18 0 22
50 35 190 53 94 11 414 8 396 -4 -6 -5 -1 -7 14 -5 14 1 30 -1 37 -5 7 -4 23
-1 37 8 24 16 25 15 37 -19 11 -30 17 -35 51 -38 33 -3 38 -1 39 17 0 20 0 20
9 0 12 -28 1 81 -12 125 -25 82 -108 168 -158 163 -14 -1 -36 0 -49 3 -19 4
-22 7 -11 14 37 23 -28 33 -220 34 -143 1 -230 -10 -230 -30 0 -11 -15 -14
-65 -14 -43 0 -86 -8 -131 -24 -72 -27 -84 -26 -84 5 0 10 -4 19 -10 19 -5 0
-10 8 -10 18 0 16 -87 292 -95 300 -1 1 -5 -66 -8 -150z"/>
<path d="M12545 11893 c-75 -17 -95 -25 -95 -38 0 -11 -11 -15 -38 -15 -47 0
-95 -41 -124 -107 -17 -40 -20 -59 -15 -125 6 -77 7 -78 54 -123 57 -54 143
-85 237 -85 77 0 178 19 170 32 -4 6 2 7 16 3 15 -5 20 -4 16 4 -4 6 0 11 9
11 9 0 14 4 11 9 -3 5 1 11 9 15 8 3 17 1 20 -4 4 -6 14 -6 27 1 18 10 19 12
5 27 -14 13 -19 13 -34 2 -17 -13 -17 -13 -2 4 16 17 18 17 42 1 24 -15 26
-15 39 2 7 10 19 18 26 18 8 0 20 17 27 37 9 26 9 36 1 31 -6 -3 -1 4 12 16
24 24 24 24 27 123 1 47 -1 65 -9 61 -6 -4 -5 1 2 10 14 16 9 37 -9 37 -6 0
-8 -3 -5 -8 2 -4 -19 -5 -47 -2 -37 4 -52 9 -52 20 0 21 -24 29 -65 24 -23 -4
-31 -2 -22 4 22 15 -175 28 -233 15z"/>
<path d="M12794 10595 c7 -19 15 -38 19 -41 4 -4 7 -99 7 -211 l0 -204 -77 3
-78 3 -5 175 c-5 162 -10 200 -28 200 -4 0 -37 -29 -74 -64 l-68 -65 0 -125 0
-126 -80 0 -80 0 0 51 0 51 -137 -128 c-159 -148 -162 -151 -155 -176 3 -14
-2 -18 -26 -18 -26 0 -55 -22 -177 -136 -108 -102 -145 -142 -145 -160 0 -19
-5 -24 -25 -24 -14 0 -33 -8 -43 -17 -10 -10 -75 -71 -145 -136 -95 -89 -127
-125 -127 -143 0 -20 -5 -24 -29 -24 -22 0 -48 -19 -117 -84 -49 -45 -113
-105 -141 -131 -41 -36 -53 -54 -53 -76 0 -25 -4 -29 -28 -29 -20 0 -43 -13
-73 -41 -24 -23 -88 -82 -141 -131 -80 -74 -98 -96 -98 -119 l0 -29 260 0 260
0 0 -735 0 -735 75 0 75 0 0 325 0 325 301 2 300 3 3 160 3 160 326 3 327 2 0
-480 0 -480 115 0 115 0 0 715 0 715 405 0 405 0 0 -724 0 -725 33 -3 32 -3 3
-102 3 -102 33 36 c28 31 40 37 89 41 l57 4 0 109 0 108 -52 3 -53 3 -3 36
c-3 33 0 38 29 48 18 6 76 11 130 11 l99 0 0 34 c0 34 0 34 101 70 l100 36
190 0 189 0 0 -145 0 -145 60 0 60 0 0 200 0 200 70 0 70 0 0 90 0 90 -60 0
-60 0 0 70 0 70 182 2 182 3 1 190 0 190 43 3 43 3 -3 101 -3 102 -77 20 -78
20 0 38 0 38 230 0 230 0 0 140 0 140 -77 1 c-43 1 -95 1 -115 1 -21 -1 -38 1
-38 5 0 16 39 32 78 33 41 0 42 1 40 32 -1 17 2 33 7 35 6 2 89 59 185 127
l175 123 3 92 3 91 -86 0 -85 0 0 29 c0 29 3 30 123 70 67 23 141 41 165 41
l42 0 0 239 0 239 -92 16 c-51 9 -115 21 -143 26 -81 16 -436 78 -486 85 -35
5 -48 3 -59 -10 -35 -42 -92 -60 -190 -60 -85 0 -100 3 -140 27 -25 14 -56 38
-69 52 -14 14 -30 26 -38 26 -7 0 -13 11 -13 25 0 29 -19 40 -85 49 -27 4 -60
10 -73 13 -22 5 -23 3 -20 -38 l3 -44 58 -3 57 -3 0 -40 c0 -34 -4 -41 -27
-51 -49 -19 -134 -21 -176 -3 -49 20 -76 77 -77 156 l0 57 -37 7 c-21 3 -48 9
-60 12 -23 5 -23 5 -23 -116 l0 -121 -75 0 -74 0 -3 132 -3 132 -30 7 c-16 5
-56 12 -87 17 l-58 9 0 -149 0 -148 -80 0 -80 0 0 165 c0 150 -2 165 -17 165
-10 0 -27 3 -39 6 -19 5 -20 2 -16 -55 l4 -61 -186 0 -187 0 7 -22 c3 -13 13
-30 20 -39 8 -8 14 -25 14 -37 0 -21 4 -22 90 -22 88 0 90 1 90 24 0 13 7 29
15 36 20 17 45 -3 45 -36 0 -20 5 -24 30 -24 37 0 38 -9 3 -42 -46 -42 -94
-61 -169 -66 -92 -6 -161 16 -216 69 -23 21 -44 39 -47 39 -4 0 -15 36 -25 81
-19 85 -17 141 10 204 l14 35 -60 0 -60 0 0 -210 0 -210 -75 0 -75 0 0 234 0
234 -50 11 c-85 18 -90 17 -76 -24z"/>
<path d="M10353 8407 c-15 -14 -23 -35 -23 -55 0 -29 -3 -32 -32 -32 -25 0
-45 -11 -79 -43 -25 -23 -87 -80 -137 -126 -81 -74 -92 -88 -92 -118 0 -31 -2
-33 -37 -33 -30 0 -46 -9 -92 -52 -221 -207 -215 -201 -216 -233 0 -27 -4 -31
-37 -35 -29 -4 -58 -26 -149 -110 -162 -150 -159 -148 -159 -180 0 -28 -3 -30
-38 -30 -29 0 -45 -7 -67 -30 l-28 -30 239 -2 239 -3 5 -335 c3 -184 6 -329 8
-322 1 9 7 10 20 3 22 -12 101 -41 122 -45 12 -2 16 -34 20 -182 3 -98 7 137
8 524 l2 702 280 0 280 0 0 395 c0 217 -3 395 -7 394 -5 0 -18 -10 -30 -22z"/>
<path d="M2400 5414 c-54 -37 -100 -104 -94 -134 4 -18 3 -21 -4 -12 -13 19
-32 -37 -32 -94 l0 -44 75 0 c41 0 75 4 75 8 0 4 -31 6 -70 4 -46 -3 -70 -1
-70 7 0 7 15 9 44 5 54 -8 107 3 85 17 -12 7 -12 9 1 9 37 1 -17 20 -57 20
-40 0 -43 2 -43 28 0 31 9 47 30 55 10 4 8 6 -7 6 -13 1 -23 6 -23 12 0 5 5 7
10 4 6 -4 9 -3 8 2 -2 4 5 19 15 33 11 16 17 19 17 9 0 -8 -5 -20 -11 -26 -7
-7 -8 -13 0 -17 6 -4 15 7 20 26 l11 33 -3 -37 c-2 -28 1 -39 14 -43 9 -3 16
-11 16 -18 0 -7 1 -25 2 -42 2 -26 4 -27 10 -10 5 11 7 23 4 28 -2 4 1 7 8 7
7 0 10 3 7 6 -4 3 2 14 13 25 20 20 26 59 9 59 -6 0 -10 -6 -9 -12 3 -27 -1
-48 -11 -48 -5 0 -7 7 -4 15 4 8 1 15 -5 15 -6 0 -11 -7 -11 -16 0 -14 -3 -14
-15 -4 -17 14 -21 35 -5 25 6 -3 10 -1 10 5 0 6 5 8 10 5 6 -3 10 1 10 9 0 9
-4 16 -10 16 -5 0 -10 -4 -10 -10 0 -18 -18 -10 -23 10 -4 17 -1 19 21 15 18
-4 21 -3 9 3 -15 6 -12 10 17 26 19 10 37 25 41 34 3 9 -8 4 -29 -12 -21 -15
-37 -22 -41 -16 -3 5 0 10 8 10 8 0 20 7 27 15 19 22 0 17 -40 -11z"/>
<path d="M3480 5425 c7 -8 18 -15 25 -15 7 0 18 -7 25 -15 19 -23 -2 -18 -40
10 -37 28 -40 29 -40 17 0 -16 78 -52 96 -45 11 4 15 3 11 -4 -4 -6 0 -13 8
-17 8 -3 15 -13 15 -23 0 -15 -2 -15 -16 3 -15 19 -15 18 -9 -3 3 -12 1 -24
-5 -28 -5 -3 -10 -11 -10 -17 0 -6 9 -3 20 7 11 10 23 15 27 11 4 -4 1 -11 -7
-16 -8 -6 -10 -10 -4 -10 5 0 16 6 23 13 11 10 13 9 8 -6 -5 -12 -3 -16 4 -11
8 4 9 -1 4 -17 -15 -47 -15 -54 -1 -25 l13 29 5 -36 c2 -22 0 -37 -7 -37 -5 0
-3 -5 5 -10 10 -6 -3 -8 -40 -4 -81 8 -83 10 -78 48 2 19 0 32 -4 30 -14 -9
-8 6 14 36 12 16 19 33 15 37 -4 3 -7 1 -7 -6 0 -7 -5 -9 -12 -5 -8 5 -9 2 -5
-9 3 -9 2 -19 -2 -22 -16 -9 -20 37 -5 52 18 18 12 29 -23 38 -15 3 -31 12
-35 18 -6 9 -8 8 -8 -1 0 -8 9 -16 19 -19 19 -5 36 -31 27 -40 -8 -8 -27 8
-21 18 8 12 -6 11 -24 0 -9 -6 -22 -6 -32 0 -11 6 -20 5 -24 -1 -3 -5 1 -10 9
-10 9 0 32 -17 52 -37 22 -24 32 -30 28 -18 -5 11 -17 28 -29 38 l-20 18 21
-10 c32 -15 55 -56 41 -70 -8 -8 -8 -11 1 -11 7 0 11 -3 11 -7 -5 -29 3 -83
12 -83 5 0 8 4 5 9 -4 5 2 8 11 6 10 -2 39 -7 66 -10 71 -9 56 -23 -23 -22
-39 1 -70 -1 -70 -5 0 -5 34 -8 75 -8 l75 0 0 44 c0 23 -5 58 -12 77 -19 56
-76 135 -118 163 -45 29 -58 33 -40 11z"/>
<path d="M14871 5378 c-1 -10 3 -18 7 -18 4 0 8 -8 8 -17 1 -10 5 -27 9 -37 7
-15 5 -17 -6 -11 -8 4 -11 4 -7 0 5 -5 19 -9 32 -11 l23 -2 -23 23 c-13 13
-24 30 -24 37 0 7 10 1 21 -14 12 -16 26 -25 35 -21 10 4 13 0 8 -13 -5 -16
-4 -16 5 -4 8 11 10 4 7 -32 -2 -26 1 -45 5 -42 5 3 9 0 9 -7 0 -9 3 -9 14 0
10 8 16 9 21 1 3 -6 11 -8 16 -5 5 4 9 -1 9 -9 0 -20 -86 -23 -93 -3 -4 10 -6
10 -6 0 -1 -7 -9 -14 -18 -15 -10 -1 14 -4 52 -8 l70 -6 -78 -2 c-43 -1 -76 2
-73 6 2 4 1 14 -5 22 -6 11 -9 4 -9 -22 l0 -38 84 0 85 0 -1 39 c0 29 -8 48
-29 71 -16 17 -29 33 -29 36 0 2 -19 28 -42 58 -30 39 -46 52 -54 45 -8 -7
-14 -6 -17 3 -4 8 -6 7 -6 -4z"/>
<path d="M8155 5052 c2 -34 8 -68 14 -76 6 -7 8 -16 5 -19 -9 -9 36 -78 47
-72 4 3 14 -3 21 -14 9 -14 19 -19 35 -15 14 4 23 2 23 -5 0 -6 -6 -11 -14
-11 -8 0 -16 -5 -18 -12 -3 -8 -12 -4 -25 9 -12 12 -19 24 -15 27 3 3 0 6 -7
6 -7 0 -11 -13 -9 -34 2 -30 4 -33 20 -25 12 7 18 6 18 -1 0 -6 13 -1 29 11
26 19 39 20 164 17 74 -2 131 0 126 3 -5 3 11 10 36 16 25 6 45 6 45 2 0 -5
-8 -9 -18 -9 -10 0 -28 -7 -40 -15 -17 -13 -49 -16 -151 -14 -71 0 -136 -3
-144 -7 -18 -11 319 -9 346 1 10 5 17 18 17 36 0 15 11 49 25 75 26 48 33 80
15 69 -5 -3 -10 -18 -10 -33 0 -21 -2 -24 -10 -12 -9 14 -14 7 -11 -14 3 -17
-11 -46 -20 -41 -5 4 -9 -1 -9 -11 0 -13 -7 -15 -37 -10 -24 3 -31 2 -19 -3
18 -7 -149 -5 -241 2 -18 2 -30 0 -25 -5 4 -4 59 -9 122 -11 l115 -3 -120 2
c-66 1 -135 5 -153 9 -38 9 -67 42 -52 61 7 8 7 20 0 38 -11 30 -25 35 -17 6
3 -11 1 -22 -4 -25 -4 -3 -6 -13 -3 -23 5 -14 3 -14 -10 2 -19 24 -21 40 -3
29 6 -4 4 5 -5 20 -24 36 -24 51 2 37 16 -9 20 -8 20 5 0 8 6 15 13 15 9 0 9
2 0 8 -6 4 -13 23 -16 42 -3 29 -4 28 -3 -7 1 -38 -1 -43 -21 -43 -18 0 -23 7
-26 43 -2 23 -3 14 -2 -21z"/>
<path d="M10905 5085 c2 -22 0 -47 -5 -55 -8 -12 -10 -10 -11 10 -1 21 -2 22
-6 5 -3 -11 -15 -31 -28 -45 -36 -40 -38 -58 -10 -86 17 -17 26 -37 27 -64 l1
-39 71 -6 c39 -3 132 -5 206 -3 135 4 135 4 -39 6 -96 1 -171 5 -167 10 4 4
65 10 134 13 l127 5 -122 2 c-67 1 -123 6 -125 12 -2 6 -8 6 -18 0 -12 -8 -12
-10 5 -10 20 -1 20 -1 1 -12 -15 -8 -21 -8 -24 0 -2 7 -13 12 -24 12 -15 0
-19 5 -15 19 3 11 -2 29 -10 40 -8 12 -10 21 -4 21 6 0 11 5 11 11 0 5 -5 7
-12 3 -7 -5 -9 -2 -5 9 4 12 2 14 -11 10 -13 -5 -12 0 6 19 12 13 22 30 22 38
0 7 3 10 7 7 3 -4 12 -2 19 4 11 9 13 4 11 -23 -2 -27 1 -34 15 -34 12 0 14 4
8 10 -6 6 -10 16 -10 23 0 6 11 1 25 -13 25 -25 33 -40 16 -30 -5 3 -8 -9 -8
-28 1 -28 4 -32 22 -29 16 4 17 3 5 -6 -8 -6 -10 -11 -4 -11 23 0 24 15 2 33
-19 15 -19 18 -4 13 16 -6 17 -4 6 9 -16 20 -12 19 35 -6 34 -18 36 -20 13
-16 -15 2 -25 0 -22 -4 3 -5 29 -6 58 -3 38 5 56 3 61 -6 6 -10 1 -11 -21 -6
-20 4 -24 4 -15 -3 8 -5 34 -8 58 -6 31 2 43 -1 43 -11 0 -8 5 -14 11 -14 6 0
9 7 5 15 -4 12 0 14 21 9 18 -5 24 -4 19 5 -4 6 -19 11 -34 11 -21 0 -24 2
-12 10 13 8 12 10 -3 10 -10 0 -16 4 -13 9 4 5 -4 7 -15 4 -20 -6 -20 -7 -6
-18 25 -18 9 -25 -21 -9 -15 7 -48 16 -74 19 -39 5 -58 15 -101 55 -30 27 -54
55 -55 62 -1 7 -6 29 -11 48 l-11 35 5 -40z"/>
<path d="M12295 5089 c-4 -23 -1 -49 10 -76 13 -33 23 -42 48 -47 25 -5 29 -9
17 -16 -9 -6 -20 -5 -29 3 -9 8 -8 2 4 -16 9 -15 24 -31 31 -35 8 -4 15 -26
16 -49 l1 -41 51 -6 c66 -8 361 -8 353 0 -3 3 -81 6 -173 5 -93 -1 -164 2
-160 6 4 4 65 11 134 14 l127 5 -121 2 c-112 2 -122 4 -127 22 -3 11 -13 20
-24 19 -17 0 -17 -1 1 -8 15 -6 16 -10 7 -15 -7 -5 -18 -3 -24 3 -13 13 -27
14 -27 2 0 -5 8 -12 18 -14 13 -4 11 -5 -5 -6 -19 -1 -23 4 -23 29 0 19 -7 34
-20 42 -11 7 -20 16 -20 21 0 4 4 6 9 3 5 -3 11 0 14 8 6 14 -31 46 -52 46 -8
0 -21 23 -21 36 0 3 9 0 19 -6 25 -13 54 -13 46 0 -3 6 -15 10 -26 10 -11 0
-22 7 -26 16 -5 13 -7 13 -14 2 -6 -9 -9 -5 -9 14 0 14 4 28 10 30 6 2 6 9 0
17 -6 11 -10 6 -15 -20z"/>
<path d="M17892 5042 c-2 -81 -13 -112 -41 -112 -6 0 -11 -4 -11 -9 0 -5 10
-7 22 -3 14 3 19 2 14 -6 -4 -7 -14 -12 -22 -12 -8 0 -14 -4 -14 -9 0 -12 33
-9 42 4 4 6 5 18 2 28 -6 18 -5 18 19 2 22 -14 49 -16 171 -14 80 2 149 0 153
-5 4 -4 -65 -6 -154 -4 -119 2 -164 0 -172 -10 -9 -9 -6 -15 14 -24 36 -16 31
-27 -12 -23 l-38 5 33 -9 c36 -9 72 -4 72 10 0 5 -7 9 -16 9 -8 0 -12 4 -9 10
3 5 0 7 -8 4 -8 -3 -18 0 -22 6 -5 7 39 10 151 8 141 -3 157 -5 160 -20 2 -16
-8 -18 -114 -16 l-117 2 110 6 110 6 -105 2 c-58 1 -116 5 -130 7 -14 3 -18 2
-10 -1 8 -4 19 -13 23 -20 6 -11 37 -14 122 -14 70 0 115 -4 115 -10 0 -16
-237 -13 -243 3 -4 8 -8 9 -14 2 -4 -6 -21 -12 -36 -13 -16 -1 -36 -7 -45 -13
-13 -8 -10 -9 17 -5 18 3 100 6 182 6 l149 0 0 60 0 60 -170 0 -169 0 -4 98
-3 97 -2 -83z"/>
<path d="M15775 5070 c4 -6 1 -18 -6 -26 -6 -8 -9 -17 -5 -21 3 -3 6 -1 6 5 0
7 5 12 11 12 5 0 7 -4 4 -10 -3 -5 -1 -10 5 -10 6 0 8 -5 5 -10 -4 -6 -11 -8
-16 -5 -14 9 -23 -25 -11 -37 8 -8 10 -4 6 13 -2 13 -2 18 2 11 3 -6 11 -9 17
-5 6 4 8 0 5 -9 -4 -9 0 -15 8 -15 8 0 14 5 14 11 0 5 12 -2 28 -16 15 -13 42
-31 60 -38 30 -12 31 -14 15 -27 -11 -9 -7 -8 11 2 22 13 41 15 80 11 37 -5
61 -2 86 9 34 16 34 16 5 10 -28 -5 -29 -4 -11 9 14 11 22 12 36 4 15 -10 16
-14 5 -25 -8 -7 -22 -13 -32 -13 -10 0 -25 -5 -33 -10 -11 -8 -6 -9 20 -8 44
4 74 29 66 56 -8 24 9 39 18 16 4 -10 2 -13 -7 -7 -6 4 -4 -5 6 -20 21 -32 21
-38 3 -31 -8 3 -17 1 -21 -5 -4 -7 0 -8 11 -4 13 5 16 3 11 -10 -3 -9 -2 -17
3 -17 6 0 10 8 10 17 0 12 3 14 11 6 7 -7 8 -24 4 -43 l-7 -31 -211 4 c-117 3
-218 6 -225 8 -20 4 -8 23 18 29 24 6 41 30 21 30 -6 0 -11 -4 -11 -9 0 -5
-10 -11 -21 -14 -19 -5 -21 -3 -15 24 3 17 2 28 -3 25 -4 -3 -13 6 -19 19 -13
29 -5 33 14 8 12 -17 13 -17 11 3 -1 22 -24 28 -44 11 -9 -6 -13 -6 -13 2 0 6
-5 11 -11 11 -8 0 -8 -5 1 -15 7 -8 17 -12 23 -8 6 4 8 0 4 -11 -4 -10 -1 -19
8 -22 10 -4 15 -20 15 -49 l0 -42 46 -7 c26 -3 134 -6 240 -6 l194 0 0 43 c0
24 5 48 11 54 9 9 1 23 -31 57 l-43 45 -29 -24 c-15 -13 -37 -27 -48 -30 -17
-5 -19 -10 -9 -21 9 -12 6 -14 -22 -13 -28 0 -30 2 -14 9 13 5 1 6 -31 3 -62
-7 -113 9 -154 47 -16 15 -30 24 -30 18 0 -5 -5 -6 -10 -3 -6 4 -10 12 -8 18
3 21 -13 77 -23 77 -6 0 -7 -5 -4 -10z"/>
<path d="M17237 4972 c-24 -2 -35 -7 -31 -14 5 -8 -2 -9 -22 -5 -25 5 -29 2
-30 -16 0 -12 -4 -30 -8 -39 -5 -11 -4 -18 3 -18 6 0 11 6 11 14 0 7 7 19 15
26 9 8 15 9 15 2 0 -6 -5 -14 -11 -18 -6 -3 -8 -17 -5 -29 4 -17 1 -25 -11
-28 -17 -4 -17 -5 0 -6 9 0 17 -5 17 -11 0 -5 -20 -9 -45 -8 -50 1 -61 14 -17
21 25 4 25 4 -5 6 -23 1 -33 -3 -33 -14 0 -8 -5 -15 -11 -15 -7 0 -9 11 -6 30
4 16 2 32 -3 35 -6 4 -10 -11 -10 -34 l0 -41 71 0 71 0 -3 38 c-1 20 5 54 14
75 l16 37 145 0 146 0 15 -36 c8 -20 15 -54 15 -75 l0 -39 70 0 70 0 0 39 c0
21 -9 58 -21 82 -12 26 -18 33 -15 18 3 -15 -1 -34 -10 -47 -9 -13 -11 -22 -4
-22 6 0 14 10 19 22 8 21 8 21 13 -5 5 -28 5 -28 -46 -25 -48 3 -51 5 -49 28
2 21 1 22 -5 6 -6 -14 -11 -16 -16 -7 -4 6 -2 18 4 26 8 9 8 15 2 15 -6 0 -13
-6 -16 -12 -4 -7 -4 -3 -2 10 2 12 0 20 -5 16 -5 -3 -9 -1 -9 5 0 10 -206 19
-283 13z"/>
</g>
</svg>
